<svg xmlns="http://www.w3.org/2000/svg" height="95.371" width="112.953"><defs><clipPath id="a" clipPathUnits="userSpaceOnUse"><path d="M0 71.528h84.715V0H0z"/></clipPath></defs><g clip-path="url(#a)" transform="matrix(1.33333 0 0 -1.33333 0 95.371)"><path d="M71.377 10.68a11 11 0 0 0-10.58-8h-36.86a11 11 0 0 0-10.58 8L3.117 46.53h78.52zm11.59 37.85h-15.08l-10.2 21.69a1 1 0 0 1-1.81-.85l9.8-20.83h-46.6l9.8 20.83a1 1 0 0 1-1.81.85l-10.2-21.69H1.787a1 1 0 0 1-1-1.27l10.65-37.12a13.06 13.06 0 0 1 12.5-9.39h36.88a13.059 13.059 0 0 1 12.5 9.43l10.61 37.08a.999.999 0 0 1-1 1.27z"/><path d="M71.377 10.68a11 11 0 0 0-10.58-8h-36.86a11 11 0 0 0-10.58 8L3.117 46.53h78.52zm11.59 37.85h-15.08l-10.2 21.69a1 1 0 0 1-1.81-.85l9.8-20.83h-46.6l9.8 20.83a1 1 0 0 1-1.81.85l-10.2-21.69H1.787a1 1 0 0 1-1-1.27l10.65-37.12a13.06 13.06 0 0 1 12.5-9.39h36.88a13.059 13.059 0 0 1 12.5 9.43l10.61 37.08a.999.999 0 0 1-1 1.27z" fill="none" stroke="#000" stroke-width="1.5" stroke-miterlimit="10"/></g></svg>