<svg xmlns="http://www.w3.org/2000/svg" width="593.237" height="593.237"><path d="M402.411 283.512c-1.081-.917-1.953-1.731-2.89-2.567-6.142-7.005 4.916-7.664 4.916-7.664h13.656l120.833.027h4.598s10.53.445 4.062 7.283c-.364.3-.709.604-1.091.949-.608.577-1.317 1.172-2.145 1.844-.427.364-.908.754-1.362 1.113a67.23 67.23 0 0 0-2.018 1.622c-14.628 11.553-39.214 26.658-67.244 26.131-31.082 1.073-57.377-16.844-71.315-28.738zm-9.295-27.435c-11.766 0-9.631-8.041-7.723-12.17l1.227-2.344c0-.027.055-.113.055-.113l81.228-154.688c.1-.168 5.633-10.662 11.239.027l81.001 154.215c1.681 3.321 6.814 15.101-5.216 15.101l-161.783-.027-.028-.001zm-187.35-14.097l.009.027 1.258 2.403c1.954 4.016 4.884 11.693-1.258 11.693l-174.299-.027c-5.779 0-4.634-5.306-2.79-9.576l2.762-5.247.027-.027L114.57 83.005s4.243-6.56 7.682 0h.009l83.505 158.975zm-13.175 41.451c-15.469 11.053-42.767 27.33-70.875 28.411-.55.063-1.063.2-1.59.255-.086-.027-.114-.082-.164-.154-1.236.1-2.435.281-3.662.281-.636 0-1.231-.137-1.872-.137-29.075-.309-56.188-18.589-70.279-29.951h.009s-11.221-8.873 0-8.873h14.306l123.037.027h10.849c-.009.01 11.121 2.745.241 10.141zm398.426-35.953l-.246-.554.146-.114-1.845-3.516-98.436-187.401c-2.672-4.893-12.03-19.258-30.029-19.258h-329.71c-20.066 0-30.115 19.771-30.337 20.234L3.899 240.922s-.027.082-.045.082l-.682 1.313c-1.617 3.207-5.22 11.916-1.645 20.516 24.559 39.86 68.344 66.627 118.598 66.627 49.141 0 91.995-25.659 116.84-64.024 3.798-8.736-1.49-19.648-1.49-19.648L144.018 71.625l-.895-1.694c-1.227-2.826-2.326-8.232 7.482-8.232h119.906c3.407.114 12.893 1.794 12.893 17.667v412.572c-.227 4.099-1.772 12.366-10.276 17.618l-60.03 37.115s-15.741 9.932 0 9.932H383.44c11.603 0 0-8.06 0-8.06l-61.839-37.852c-.019 0-.019-.027-.055-.027-10.158-6.224-12.057-14.065-12.339-18.026V77.599c0-14.347 10.285-15.828 13.901-15.909h117.235c3.08.054 12.438 1.072 6.533 12.338l-91.804 174.763s-2.854 6.896.363 14.433c24.595 39.632 68.198 66.236 118.298 66.236 50.19 0 93.967-26.649 118.517-66.432 2.446-6.419-.316-13.538-1.233-15.55z"/></svg>